<svg xmlns="http://www.w3.org/2000/svg" xmlns:xlink="http://www.w3.org/1999/xlink" width="1920" zoomAndPan="magnify" viewBox="0 0 1440 809.999993" height="1080" preserveAspectRatio="xMidYMid meet" version="1.0"><defs><clipPath id="f8b75286a1"><path d="M 315 0 L 1125 0 L 1125 810 L 315 810 Z M 315 0 " clip-rule="nonzero"/></clipPath><clipPath id="99fd47fc00"><path d="M 720 0 C 496.324219 0 315 181.324219 315 405 C 315 628.675781 496.324219 810 720 810 C 943.675781 810 1125 628.675781 1125 405 C 1125 181.324219 943.675781 0 720 0 Z M 720 0 " clip-rule="nonzero"/></clipPath><radialGradient gradientTransform="matrix(1, 0, 0, 1, 315.000004, 0.00002)" gradientUnits="userSpaceOnUse" r="572.755425" cx="404.999996" id="7e73e5dd6b" cy="404.999996" fx="404.999996" fy="404.999996"><stop stop-opacity="1" stop-color="rgb(99.938965%, 30.97229%, 82.53479%)" offset="0"/><stop stop-opacity="1" stop-color="rgb(99.848938%, 30.932617%, 82.289124%)" offset="0.0078125"/><stop stop-opacity="1" stop-color="rgb(99.789429%, 30.906677%, 82.125854%)" offset="0.0117188"/><stop stop-opacity="1" stop-color="rgb(99.729919%, 30.880737%, 81.962585%)" offset="0.015625"/><stop stop-opacity="1" stop-color="rgb(99.67041%, 30.854797%, 81.797791%)" offset="0.0195312"/><stop stop-opacity="1" stop-color="rgb(99.609375%, 30.828857%, 81.634521%)" offset="0.0234375"/><stop stop-opacity="1" stop-color="rgb(99.549866%, 30.802917%, 81.471252%)" offset="0.0273438"/><stop stop-opacity="1" stop-color="rgb(99.490356%, 30.775452%, 81.307983%)" offset="0.03125"/><stop stop-opacity="1" stop-color="rgb(99.430847%, 30.749512%, 81.143188%)" offset="0.0351562"/><stop stop-opacity="1" stop-color="rgb(99.371338%, 30.723572%, 80.979919%)" offset="0.0390625"/><stop stop-opacity="1" stop-color="rgb(99.311829%, 30.697632%, 80.81665%)" offset="0.0429688"/><stop stop-opacity="1" stop-color="rgb(99.250793%, 30.671692%, 80.653381%)" offset="0.046875"/><stop stop-opacity="1" stop-color="rgb(99.191284%, 30.645752%, 80.488586%)" offset="0.0507812"/><stop stop-opacity="1" stop-color="rgb(99.131775%, 30.619812%, 80.325317%)" offset="0.0546875"/><stop stop-opacity="1" stop-color="rgb(99.072266%, 30.592346%, 80.162048%)" offset="0.0585938"/><stop stop-opacity="1" stop-color="rgb(99.012756%, 30.566406%, 79.998779%)" offset="0.0625"/><stop stop-opacity="1" stop-color="rgb(98.953247%, 30.540466%, 79.833984%)" offset="0.0664062"/><stop stop-opacity="1" stop-color="rgb(98.892212%, 30.514526%, 79.670715%)" offset="0.0703125"/><stop stop-opacity="1" stop-color="rgb(98.832703%, 30.488586%, 79.507446%)" offset="0.0742188"/><stop stop-opacity="1" stop-color="rgb(98.773193%, 30.462646%, 79.342651%)" offset="0.078125"/><stop stop-opacity="1" stop-color="rgb(98.713684%, 30.435181%, 79.179382%)" offset="0.0820312"/><stop stop-opacity="1" stop-color="rgb(98.654175%, 30.409241%, 79.016113%)" offset="0.0859375"/><stop stop-opacity="1" stop-color="rgb(98.594666%, 30.383301%, 78.852844%)" offset="0.0898438"/><stop stop-opacity="1" stop-color="rgb(98.53363%, 30.357361%, 78.688049%)" offset="0.09375"/><stop stop-opacity="1" stop-color="rgb(98.474121%, 30.331421%, 78.52478%)" offset="0.0976562"/><stop stop-opacity="1" stop-color="rgb(98.414612%, 30.305481%, 78.361511%)" offset="0.101562"/><stop stop-opacity="1" stop-color="rgb(98.355103%, 30.279541%, 78.198242%)" offset="0.105469"/><stop stop-opacity="1" stop-color="rgb(98.295593%, 30.252075%, 78.033447%)" offset="0.109375"/><stop stop-opacity="1" stop-color="rgb(98.236084%, 30.226135%, 77.870178%)" offset="0.113281"/><stop stop-opacity="1" stop-color="rgb(98.175049%, 30.200195%, 77.706909%)" offset="0.117188"/><stop stop-opacity="1" stop-color="rgb(98.11554%, 30.174255%, 77.54364%)" offset="0.121094"/><stop stop-opacity="1" stop-color="rgb(98.05603%, 30.148315%, 77.378845%)" offset="0.125"/><stop stop-opacity="1" stop-color="rgb(97.996521%, 30.122375%, 77.215576%)" offset="0.128906"/><stop stop-opacity="1" stop-color="rgb(97.937012%, 30.09491%, 77.052307%)" offset="0.132812"/><stop stop-opacity="1" stop-color="rgb(97.877502%, 30.06897%, 76.889038%)" offset="0.136719"/><stop stop-opacity="1" stop-color="rgb(97.816467%, 30.04303%, 76.724243%)" offset="0.140625"/><stop stop-opacity="1" stop-color="rgb(97.756958%, 30.01709%, 76.560974%)" offset="0.144531"/><stop stop-opacity="1" stop-color="rgb(97.697449%, 29.99115%, 76.397705%)" offset="0.148438"/><stop stop-opacity="1" stop-color="rgb(97.637939%, 29.96521%, 76.23291%)" offset="0.152344"/><stop stop-opacity="1" stop-color="rgb(97.57843%, 29.93927%, 76.069641%)" offset="0.15625"/><stop stop-opacity="1" stop-color="rgb(97.518921%, 29.911804%, 75.906372%)" offset="0.160156"/><stop stop-opacity="1" stop-color="rgb(97.457886%, 29.885864%, 75.743103%)" offset="0.164062"/><stop stop-opacity="1" stop-color="rgb(97.398376%, 29.859924%, 75.578308%)" offset="0.167969"/><stop stop-opacity="1" stop-color="rgb(97.338867%, 29.833984%, 75.415039%)" offset="0.171875"/><stop stop-opacity="1" stop-color="rgb(97.279358%, 29.808044%, 75.25177%)" offset="0.175781"/><stop stop-opacity="1" stop-color="rgb(97.219849%, 29.782104%, 75.088501%)" offset="0.179688"/><stop stop-opacity="1" stop-color="rgb(97.160339%, 29.756165%, 74.923706%)" offset="0.183594"/><stop stop-opacity="1" stop-color="rgb(97.099304%, 29.728699%, 74.760437%)" offset="0.1875"/><stop stop-opacity="1" stop-color="rgb(97.039795%, 29.702759%, 74.597168%)" offset="0.191406"/><stop stop-opacity="1" stop-color="rgb(96.980286%, 29.676819%, 74.433899%)" offset="0.195312"/><stop stop-opacity="1" stop-color="rgb(96.920776%, 29.650879%, 74.269104%)" offset="0.199219"/><stop stop-opacity="1" stop-color="rgb(96.861267%, 29.624939%, 74.105835%)" offset="0.203125"/><stop stop-opacity="1" stop-color="rgb(96.801758%, 29.598999%, 73.942566%)" offset="0.207031"/><stop stop-opacity="1" stop-color="rgb(96.740723%, 29.571533%, 73.779297%)" offset="0.210938"/><stop stop-opacity="1" stop-color="rgb(96.681213%, 29.545593%, 73.614502%)" offset="0.214844"/><stop stop-opacity="1" stop-color="rgb(96.621704%, 29.519653%, 73.451233%)" offset="0.21875"/><stop stop-opacity="1" stop-color="rgb(96.562195%, 29.493713%, 73.287964%)" offset="0.222656"/><stop stop-opacity="1" stop-color="rgb(96.502686%, 29.467773%, 73.123169%)" offset="0.226562"/><stop stop-opacity="1" stop-color="rgb(96.443176%, 29.441833%, 72.9599%)" offset="0.230469"/><stop stop-opacity="1" stop-color="rgb(96.382141%, 29.415894%, 72.796631%)" offset="0.234375"/><stop stop-opacity="1" stop-color="rgb(96.322632%, 29.388428%, 72.633362%)" offset="0.238281"/><stop stop-opacity="1" stop-color="rgb(96.263123%, 29.362488%, 72.468567%)" offset="0.242188"/><stop stop-opacity="1" stop-color="rgb(96.203613%, 29.336548%, 72.305298%)" offset="0.246094"/><stop stop-opacity="1" stop-color="rgb(96.144104%, 29.310608%, 72.142029%)" offset="0.25"/><stop stop-opacity="1" stop-color="rgb(96.054077%, 29.270935%, 71.896362%)" offset="0.253906"/><stop stop-opacity="1" stop-color="rgb(95.935059%, 29.219055%, 71.569824%)" offset="0.261719"/><stop stop-opacity="1" stop-color="rgb(95.81604%, 29.167175%, 71.24176%)" offset="0.269531"/><stop stop-opacity="1" stop-color="rgb(95.695496%, 29.115295%, 70.915222%)" offset="0.277344"/><stop stop-opacity="1" stop-color="rgb(95.576477%, 29.06189%, 70.587158%)" offset="0.285156"/><stop stop-opacity="1" stop-color="rgb(95.457458%, 29.01001%, 70.259094%)" offset="0.292969"/><stop stop-opacity="1" stop-color="rgb(95.336914%, 28.95813%, 69.932556%)" offset="0.300781"/><stop stop-opacity="1" stop-color="rgb(95.217896%, 28.904724%, 69.604492%)" offset="0.308594"/><stop stop-opacity="1" stop-color="rgb(95.098877%, 28.852844%, 69.277954%)" offset="0.316406"/><stop stop-opacity="1" stop-color="rgb(94.978333%, 28.800964%, 68.94989%)" offset="0.324219"/><stop stop-opacity="1" stop-color="rgb(94.859314%, 28.747559%, 68.623352%)" offset="0.332031"/><stop stop-opacity="1" stop-color="rgb(94.740295%, 28.695679%, 68.295288%)" offset="0.339844"/><stop stop-opacity="1" stop-color="rgb(94.619751%, 28.643799%, 67.96875%)" offset="0.347656"/><stop stop-opacity="1" stop-color="rgb(94.500732%, 28.591919%, 67.640686%)" offset="0.355469"/><stop stop-opacity="1" stop-color="rgb(94.381714%, 28.538513%, 67.314148%)" offset="0.363281"/><stop stop-opacity="1" stop-color="rgb(94.261169%, 28.486633%, 66.986084%)" offset="0.371094"/><stop stop-opacity="1" stop-color="rgb(94.142151%, 28.434753%, 66.659546%)" offset="0.378906"/><stop stop-opacity="1" stop-color="rgb(94.023132%, 28.381348%, 66.331482%)" offset="0.386719"/><stop stop-opacity="1" stop-color="rgb(93.902588%, 28.329468%, 66.004944%)" offset="0.394531"/><stop stop-opacity="1" stop-color="rgb(93.783569%, 28.277588%, 65.67688%)" offset="0.402344"/><stop stop-opacity="1" stop-color="rgb(93.664551%, 28.224182%, 65.350342%)" offset="0.410156"/><stop stop-opacity="1" stop-color="rgb(93.544006%, 28.172302%, 65.022278%)" offset="0.417969"/><stop stop-opacity="1" stop-color="rgb(93.424988%, 28.120422%, 64.694214%)" offset="0.425781"/><stop stop-opacity="1" stop-color="rgb(93.305969%, 28.067017%, 64.367676%)" offset="0.433594"/><stop stop-opacity="1" stop-color="rgb(93.185425%, 28.015137%, 64.039612%)" offset="0.441406"/><stop stop-opacity="1" stop-color="rgb(93.066406%, 27.963257%, 63.713074%)" offset="0.449219"/><stop stop-opacity="1" stop-color="rgb(92.947388%, 27.911377%, 63.38501%)" offset="0.457031"/><stop stop-opacity="1" stop-color="rgb(92.826843%, 27.857971%, 63.058472%)" offset="0.464844"/><stop stop-opacity="1" stop-color="rgb(92.707825%, 27.806091%, 62.730408%)" offset="0.472656"/><stop stop-opacity="1" stop-color="rgb(92.588806%, 27.754211%, 62.40387%)" offset="0.480469"/><stop stop-opacity="1" stop-color="rgb(92.468262%, 27.700806%, 62.075806%)" offset="0.488281"/><stop stop-opacity="1" stop-color="rgb(92.349243%, 27.648926%, 61.749268%)" offset="0.496094"/><stop stop-opacity="1" stop-color="rgb(92.259216%, 27.609253%, 61.503601%)" offset="0.503906"/><stop stop-opacity="1" stop-color="rgb(92.199707%, 27.583313%, 61.338806%)" offset="0.507812"/><stop stop-opacity="1" stop-color="rgb(92.138672%, 27.557373%, 61.175537%)" offset="0.511719"/><stop stop-opacity="1" stop-color="rgb(92.079163%, 27.531433%, 61.012268%)" offset="0.515625"/><stop stop-opacity="1" stop-color="rgb(92.019653%, 27.503967%, 60.848999%)" offset="0.519531"/><stop stop-opacity="1" stop-color="rgb(91.960144%, 27.478027%, 60.684204%)" offset="0.523438"/><stop stop-opacity="1" stop-color="rgb(91.900635%, 27.452087%, 60.520935%)" offset="0.527344"/><stop stop-opacity="1" stop-color="rgb(91.841125%, 27.426147%, 60.357666%)" offset="0.53125"/><stop stop-opacity="1" stop-color="rgb(91.78009%, 27.400208%, 60.194397%)" offset="0.535156"/><stop stop-opacity="1" stop-color="rgb(91.720581%, 27.374268%, 60.029602%)" offset="0.539062"/><stop stop-opacity="1" stop-color="rgb(91.661072%, 27.348328%, 59.866333%)" offset="0.542969"/><stop stop-opacity="1" stop-color="rgb(91.601562%, 27.320862%, 59.703064%)" offset="0.546875"/><stop stop-opacity="1" stop-color="rgb(91.542053%, 27.294922%, 59.539795%)" offset="0.550781"/><stop stop-opacity="1" stop-color="rgb(91.482544%, 27.268982%, 59.375%)" offset="0.554688"/><stop stop-opacity="1" stop-color="rgb(91.421509%, 27.243042%, 59.211731%)" offset="0.558594"/><stop stop-opacity="1" stop-color="rgb(91.362%, 27.217102%, 59.048462%)" offset="0.5625"/><stop stop-opacity="1" stop-color="rgb(91.30249%, 27.191162%, 58.883667%)" offset="0.566406"/><stop stop-opacity="1" stop-color="rgb(91.242981%, 27.163696%, 58.720398%)" offset="0.570312"/><stop stop-opacity="1" stop-color="rgb(91.183472%, 27.137756%, 58.557129%)" offset="0.574219"/><stop stop-opacity="1" stop-color="rgb(91.123962%, 27.111816%, 58.39386%)" offset="0.578125"/><stop stop-opacity="1" stop-color="rgb(91.062927%, 27.085876%, 58.229065%)" offset="0.582031"/><stop stop-opacity="1" stop-color="rgb(91.003418%, 27.059937%, 58.065796%)" offset="0.585938"/><stop stop-opacity="1" stop-color="rgb(90.943909%, 27.033997%, 57.902527%)" offset="0.589844"/><stop stop-opacity="1" stop-color="rgb(90.884399%, 27.008057%, 57.739258%)" offset="0.59375"/><stop stop-opacity="1" stop-color="rgb(90.82489%, 26.980591%, 57.574463%)" offset="0.597656"/><stop stop-opacity="1" stop-color="rgb(90.765381%, 26.954651%, 57.411194%)" offset="0.601562"/><stop stop-opacity="1" stop-color="rgb(90.704346%, 26.928711%, 57.247925%)" offset="0.605469"/><stop stop-opacity="1" stop-color="rgb(90.644836%, 26.902771%, 57.084656%)" offset="0.609375"/><stop stop-opacity="1" stop-color="rgb(90.585327%, 26.876831%, 56.919861%)" offset="0.613281"/><stop stop-opacity="1" stop-color="rgb(90.525818%, 26.850891%, 56.756592%)" offset="0.617188"/><stop stop-opacity="1" stop-color="rgb(90.466309%, 26.823425%, 56.593323%)" offset="0.621094"/><stop stop-opacity="1" stop-color="rgb(90.406799%, 26.797485%, 56.430054%)" offset="0.625"/><stop stop-opacity="1" stop-color="rgb(90.316772%, 26.759338%, 56.184387%)" offset="0.628906"/><stop stop-opacity="1" stop-color="rgb(90.197754%, 26.707458%, 55.856323%)" offset="0.636719"/><stop stop-opacity="1" stop-color="rgb(90.077209%, 26.654053%, 55.529785%)" offset="0.644531"/><stop stop-opacity="1" stop-color="rgb(89.958191%, 26.602173%, 55.201721%)" offset="0.652344"/><stop stop-opacity="1" stop-color="rgb(89.839172%, 26.550293%, 54.875183%)" offset="0.660156"/><stop stop-opacity="1" stop-color="rgb(89.718628%, 26.496887%, 54.547119%)" offset="0.667969"/><stop stop-opacity="1" stop-color="rgb(89.599609%, 26.445007%, 54.220581%)" offset="0.675781"/><stop stop-opacity="1" stop-color="rgb(89.480591%, 26.393127%, 53.892517%)" offset="0.683594"/><stop stop-opacity="1" stop-color="rgb(89.360046%, 26.339722%, 53.565979%)" offset="0.691406"/><stop stop-opacity="1" stop-color="rgb(89.241028%, 26.287842%, 53.237915%)" offset="0.699219"/><stop stop-opacity="1" stop-color="rgb(89.122009%, 26.235962%, 52.909851%)" offset="0.707031"/><stop stop-opacity="1" stop-color="rgb(89.001465%, 26.184082%, 52.583313%)" offset="0.714844"/><stop stop-opacity="1" stop-color="rgb(88.882446%, 26.130676%, 52.255249%)" offset="0.722656"/><stop stop-opacity="1" stop-color="rgb(88.763428%, 26.078796%, 51.928711%)" offset="0.730469"/><stop stop-opacity="1" stop-color="rgb(88.642883%, 26.026917%, 51.600647%)" offset="0.738281"/><stop stop-opacity="1" stop-color="rgb(88.523865%, 25.973511%, 51.274109%)" offset="0.746094"/><stop stop-opacity="1" stop-color="rgb(88.433838%, 25.933838%, 51.028442%)" offset="0.753906"/><stop stop-opacity="1" stop-color="rgb(88.374329%, 25.907898%, 50.865173%)" offset="0.757812"/><stop stop-opacity="1" stop-color="rgb(88.314819%, 25.881958%, 50.700378%)" offset="0.761719"/><stop stop-opacity="1" stop-color="rgb(88.25531%, 25.856018%, 50.537109%)" offset="0.765625"/><stop stop-opacity="1" stop-color="rgb(88.194275%, 25.830078%, 50.37384%)" offset="0.769531"/><stop stop-opacity="1" stop-color="rgb(88.134766%, 25.804138%, 50.210571%)" offset="0.773438"/><stop stop-opacity="1" stop-color="rgb(88.075256%, 25.776672%, 50.045776%)" offset="0.777344"/><stop stop-opacity="1" stop-color="rgb(88.015747%, 25.750732%, 49.882507%)" offset="0.78125"/><stop stop-opacity="1" stop-color="rgb(87.956238%, 25.724792%, 49.719238%)" offset="0.785156"/><stop stop-opacity="1" stop-color="rgb(87.896729%, 25.698853%, 49.554443%)" offset="0.789062"/><stop stop-opacity="1" stop-color="rgb(87.835693%, 25.672913%, 49.391174%)" offset="0.792969"/><stop stop-opacity="1" stop-color="rgb(87.776184%, 25.646973%, 49.227905%)" offset="0.796875"/><stop stop-opacity="1" stop-color="rgb(87.716675%, 25.621033%, 49.064636%)" offset="0.800781"/><stop stop-opacity="1" stop-color="rgb(87.657166%, 25.593567%, 48.899841%)" offset="0.804688"/><stop stop-opacity="1" stop-color="rgb(87.597656%, 25.567627%, 48.736572%)" offset="0.808594"/><stop stop-opacity="1" stop-color="rgb(87.538147%, 25.541687%, 48.573303%)" offset="0.8125"/><stop stop-opacity="1" stop-color="rgb(87.44812%, 25.50354%, 48.327637%)" offset="0.816406"/><stop stop-opacity="1" stop-color="rgb(87.329102%, 25.450134%, 48.001099%)" offset="0.824219"/><stop stop-opacity="1" stop-color="rgb(87.208557%, 25.398254%, 47.673035%)" offset="0.832031"/><stop stop-opacity="1" stop-color="rgb(87.089539%, 25.346375%, 47.344971%)" offset="0.839844"/><stop stop-opacity="1" stop-color="rgb(86.97052%, 25.292969%, 47.018433%)" offset="0.847656"/><stop stop-opacity="1" stop-color="rgb(86.849976%, 25.241089%, 46.690369%)" offset="0.855469"/><stop stop-opacity="1" stop-color="rgb(86.730957%, 25.189209%, 46.363831%)" offset="0.863281"/><stop stop-opacity="1" stop-color="rgb(86.611938%, 25.135803%, 46.035767%)" offset="0.871094"/><stop stop-opacity="1" stop-color="rgb(86.521912%, 25.09613%, 45.7901%)" offset="0.878906"/><stop stop-opacity="1" stop-color="rgb(86.462402%, 25.07019%, 45.626831%)" offset="0.882812"/><stop stop-opacity="1" stop-color="rgb(86.401367%, 25.04425%, 45.463562%)" offset="0.886719"/><stop stop-opacity="1" stop-color="rgb(86.341858%, 25.018311%, 45.300293%)" offset="0.890625"/><stop stop-opacity="1" stop-color="rgb(86.282349%, 24.992371%, 45.135498%)" offset="0.894531"/><stop stop-opacity="1" stop-color="rgb(86.222839%, 24.966431%, 44.972229%)" offset="0.898438"/><stop stop-opacity="1" stop-color="rgb(86.16333%, 24.940491%, 44.80896%)" offset="0.902344"/><stop stop-opacity="1" stop-color="rgb(86.103821%, 24.913025%, 44.645691%)" offset="0.90625"/><stop stop-opacity="1" stop-color="rgb(86.013794%, 24.874878%, 44.400024%)" offset="0.910156"/><stop stop-opacity="1" stop-color="rgb(85.894775%, 24.822998%, 44.07196%)" offset="0.917969"/><stop stop-opacity="1" stop-color="rgb(85.774231%, 24.769592%, 43.745422%)" offset="0.925781"/><stop stop-opacity="1" stop-color="rgb(85.655212%, 24.717712%, 43.417358%)" offset="0.933594"/><stop stop-opacity="1" stop-color="rgb(85.565186%, 24.67804%, 43.171692%)" offset="0.941406"/><stop stop-opacity="1" stop-color="rgb(85.505676%, 24.6521%, 43.008423%)" offset="0.945312"/><stop stop-opacity="1" stop-color="rgb(85.446167%, 24.62616%, 42.845154%)" offset="0.949219"/><stop stop-opacity="1" stop-color="rgb(85.386658%, 24.60022%, 42.680359%)" offset="0.953125"/><stop stop-opacity="1" stop-color="rgb(85.296631%, 24.560547%, 42.436218%)" offset="0.957031"/><stop stop-opacity="1" stop-color="rgb(85.177612%, 24.508667%, 42.108154%)" offset="0.964844"/><stop stop-opacity="1" stop-color="rgb(85.087585%, 24.468994%, 41.862488%)" offset="0.972656"/><stop stop-opacity="1" stop-color="rgb(85.028076%, 24.443054%, 41.699219%)" offset="0.976562"/><stop stop-opacity="1" stop-color="rgb(84.938049%, 24.403381%, 41.453552%)" offset="0.980469"/><stop stop-opacity="1" stop-color="rgb(84.848022%, 24.363708%, 41.207886%)" offset="0.988281"/><stop stop-opacity="1" stop-color="rgb(84.757996%, 24.325562%, 40.962219%)" offset="0.992188"/><stop stop-opacity="1" stop-color="rgb(84.698486%, 24.299622%, 40.79895%)" offset="1"/></radialGradient><clipPath id="9a62088979"><path d="M 510 108.007812 L 932 108.007812 L 932 689.855469 L 510 689.855469 Z M 510 108.007812 " clip-rule="nonzero"/></clipPath></defs><g clip-path="url(#f8b75286a1)"><g clip-path="url(#99fd47fc00)"><path fill="url(#7e73e5dd6b)" d="M 315 0 L 315 810 L 1125 810 L 1125 0 Z M 315 0 " fill-rule="nonzero"/></g></g><g clip-path="url(#9a62088979)"><path fill="#000000" d="M 879.085938 689.800781 C 879.066406 689.792969 879.085938 689.859375 879.074219 689.878906 C 879.097656 689.882812 879.085938 689.828125 879.085938 689.800781 Z M 931.445312 366.078125 C 931.339844 358.398438 930.988281 350.589844 928.628906 343.222656 C 926.367188 336.164062 923.4375 329.007812 918.152344 323.652344 C 913.472656 319.101562 907.691406 315.347656 901.324219 313.738281 C 893.011719 311.90625 884.082031 314.4375 876.347656 317.527344 C 871.78125 319.539062 867.367188 321.886719 863.085938 324.457031 C 862.8125 323.25 862.523438 322.046875 862.214844 320.855469 C 860.570312 314.347656 857.792969 308.085938 853.539062 302.863281 C 849.355469 297.457031 843.59375 293.609375 837.589844 290.488281 C 824.550781 283.089844 807.628906 282.074219 794.253906 289.144531 C 795.238281 283.875 795.835938 278.539062 795.882812 273.105469 C 796.140625 264.390625 794.992188 255.441406 790.855469 247.644531 C 786.632812 240.226562 778.378906 235.082031 770.578125 232.070312 C 765.195312 230.1875 759.507812 229.367188 753.871094 228.59375 C 742.222656 226.695312 732.207031 231.003906 723.996094 238.203125 C 726.261719 227.289062 727.023438 216.078125 726.605469 204.910156 C 726.378906 198.757812 725.554688 192.5625 723.425781 186.761719 C 722.105469 183.109375 720.191406 179.585938 717.296875 176.945312 C 711.09375 171.503906 702.867188 169.265625 694.988281 167.472656 C 691.167969 166.628906 687.289062 165.875 683.367188 165.957031 C 674.273438 166.242188 665.828125 170.296875 658.371094 175.316406 C 652.703125 179.3125 648.261719 184.785156 644.460938 190.535156 C 635.738281 203.402344 630.609375 218.414062 627.101562 233.527344 C 622.351562 254.414062 619.402344 275.65625 615.851562 296.769531 C 614.574219 305.480469 613.101562 314.1875 611.28125 322.808594 C 610.296875 308.152344 608.035156 293.832031 599.574219 281.417969 C 599.429688 281.230469 599.277344 281.035156 599.136719 280.84375 C 603.875 273.460938 607.214844 263.359375 607.84375 256.21875 C 609.777344 234.320312 603.425781 207.019531 594.125 187.226562 C 588.457031 175.191406 580.964844 163.535156 569.730469 156.027344 C 561.792969 150.394531 550.019531 145.941406 541.234375 150.335938 C 541.125 146.441406 540.960938 142.554688 540.785156 138.679688 C 540.234375 129.28125 539.179688 119.902344 538.335938 110.515625 C 537.921875 110.414062 537.527344 110.316406 537.128906 110.21875 C 530.738281 108.664062 525.472656 108.019531 519.550781 108.527344 L 519.316406 108.546875 C 519.210938 108.558594 519.105469 108.566406 519 108.578125 C 518.804688 108.597656 518.617188 108.617188 518.417969 108.636719 C 518.28125 108.648438 518.144531 108.667969 518.007812 108.683594 C 517.816406 108.703125 517.632812 108.730469 517.441406 108.753906 C 517.390625 108.925781 517.335938 109.105469 517.28125 109.289062 C 517.230469 109.460938 517.175781 109.640625 517.125 109.824219 C 516.378906 112.324219 515.726562 114.851562 515.152344 117.398438 C 511.992188 130.886719 511.476562 144.785156 512.097656 158.609375 C 512.453125 168.777344 512.980469 178.929688 513.984375 189.050781 C 514.636719 195.699219 515.097656 202.382812 516.160156 208.988281 C 516.839844 212.71875 517.488281 217.523438 520.761719 219.773438 C 517.578125 233.585938 513.722656 247.265625 511.511719 261.28125 C 507.941406 292.03125 516.765625 322.34375 520.136719 352.726562 C 523.773438 384.710938 525.265625 416.910156 527.871094 448.984375 C 529.367188 472.566406 530.488281 496.515625 535.867188 519.667969 C 540.367188 540.1875 548.789062 559.5625 558.585938 578.070312 C 569.039062 597.375 579.488281 616.75 591.289062 635.277344 C 598.210938 646.234375 606.386719 656.652344 610.828125 668.941406 C 607.371094 657.949219 601.820312 647.683594 596.378906 637.539062 C 589.21875 624.328125 582.476562 610.890625 575.023438 597.832031 C 564.75 579.640625 554.515625 561.269531 547.46875 541.542969 C 539.324219 518.175781 536.449219 493.421875 535.023438 468.828125 C 533.925781 447.292969 532.25 425.789062 530.722656 404.28125 C 529.574219 385.878906 528.558594 367.304688 526.339844 348.957031 C 524.585938 333.691406 522.023438 318.535156 519.511719 303.382812 C 517.253906 289.722656 516.640625 275.722656 518.324219 261.960938 C 519.359375 254.582031 521.4375 247.40625 523.296875 240.207031 C 525.066406 233.511719 526.753906 226.796875 528.140625 220.011719 C 531.777344 217.921875 533.945312 212.742188 535.148438 208.855469 C 536.222656 205.761719 537.226562 202.640625 537.882812 199.429688 C 540.917969 185.402344 541.570312 171.0625 541.367188 156.726562 C 543.894531 154.628906 547.113281 153.9375 550.480469 154.199219 C 556.855469 154.695312 562.671875 157.734375 567.894531 161.25 C 589.457031 175.648438 599.632812 207.816406 603.460938 232.425781 C 604.683594 241.414062 605.019531 250.582031 604.003906 259.601562 C 603.425781 263.933594 602.226562 268.136719 600.824219 272.257812 C 599.992188 274.640625 599.0625 277.03125 597.949219 279.308594 C 597.949219 279.308594 597.148438 281.035156 596.292969 282.382812 C 594.359375 285.59375 591.929688 288.449219 588.695312 290.582031 C 588.304688 290.851562 587.84375 291.136719 587.472656 291.390625 C 589.632812 290.316406 591.703125 289.039062 593.542969 287.472656 C 594.734375 286.476562 595.878906 285.261719 596.972656 283.878906 C 604.078125 300.125 605.332031 323.253906 607.113281 339.902344 C 607.132812 340.058594 607.152344 340.21875 607.164062 340.382812 C 607.203125 340.726562 607.242188 341.082031 607.28125 341.417969 C 607.316406 341.789062 607.363281 342.15625 607.402344 342.511719 C 607.414062 342.628906 607.429688 342.738281 607.441406 342.847656 C 607.472656 343.117188 607.507812 343.382812 607.539062 343.652344 C 607.550781 343.71875 607.558594 343.785156 607.566406 343.851562 C 607.617188 344.246094 607.664062 344.640625 607.71875 345.023438 C 607.769531 345.414062 607.820312 345.789062 607.871094 346.171875 C 607.898438 346.359375 607.921875 346.542969 607.949219 346.730469 C 607.96875 346.863281 607.988281 346.996094 608.007812 347.132812 C 608.074219 347.550781 608.132812 347.953125 608.199219 348.355469 C 613.042969 378.070312 620.242188 407.402344 625.046875 437.167969 C 623.34375 411.121094 618.695312 385.402344 614.054688 359.738281 C 612.832031 352.480469 612.378906 344.949219 612.027344 337.375 C 613.058594 334.527344 613.992188 331.636719 614.800781 328.707031 C 617.242188 320.515625 618.339844 312.035156 619.648438 303.617188 C 622.953125 282.492188 625.550781 261.238281 629.597656 240.238281 C 633.265625 222.015625 639.199219 203.820312 650.46875 188.816406 C 657.191406 179.800781 668.34375 171.886719 679.585938 170.15625 C 685.414062 169.273438 691.28125 170.664062 696.894531 172.179688 C 701.425781 173.5 705.917969 175.023438 710.1875 177.070312 C 712.347656 178.160156 714.425781 179.484375 716.042969 181.296875 C 719.269531 185.0625 720.957031 189.902344 722.058594 194.667969 C 724.527344 210.628906 721.992188 226.875 719.425781 242.679688 C 718.410156 243.792969 717.429688 244.949219 716.480469 246.132812 C 707.574219 257.550781 702.261719 271.246094 698.152344 285.011719 C 696.148438 291.734375 694.113281 298.441406 692.164062 305.175781 C 692.050781 304.074219 691.886719 302.972656 691.683594 301.890625 C 691.15625 298.949219 690.371094 296.007812 688.859375 293.410156 C 685.789062 288.296875 680.730469 284.570312 675.386719 282.070312 C 671.25 280.480469 666.609375 280.117188 662.28125 281.105469 C 657.90625 282.175781 653.703125 284.226562 650.253906 287.128906 C 646.582031 290.339844 643.609375 294.476562 641.882812 299.0625 C 639.917969 304.667969 638.847656 310.558594 637.707031 316.371094 C 636.089844 324.898438 634.949219 333.507812 634.308594 342.152344 C 633.648438 340.820312 633.074219 339.460938 632.578125 338.078125 C 629.023438 328.324219 629.773438 317.734375 630.363281 307.554688 C 630.921875 299.039062 631.628906 290.539062 632.671875 282.0625 C 631.625 287.101562 630.800781 292.253906 629.78125 297.328125 C 627.996094 305.914062 626.460938 314.628906 626.597656 323.425781 C 626.519531 332.84375 628.851562 341.664062 633.894531 349.378906 C 633.75 352.941406 633.683594 356.503906 633.71875 360.070312 C 633.816406 365.847656 634.054688 371.679688 634.332031 377.476562 C 634.351562 377.753906 634.359375 378.015625 634.378906 378.289062 C 634.378906 378.289062 634.378906 378.289062 634.378906 378.292969 C 634.632812 378.375 634.902344 378.46875 635.171875 378.554688 C 639.375 379.953125 643.503906 381.550781 647.792969 382.664062 C 655.792969 384.589844 663.960938 385.769531 672.167969 386.296875 C 670.761719 392.917969 669.414062 399.554688 668.136719 406.21875 C 665.085938 421.183594 661.523438 436.082031 658.988281 451.144531 C 658.179688 456.691406 657.945312 462.308594 658.085938 467.902344 C 658.179688 472.242188 658.691406 476.621094 660.28125 480.699219 C 660.339844 480.855469 660.398438 481.011719 660.464844 481.160156 C 659.964844 483.671875 659.480469 486.199219 659.007812 488.746094 C 657.492188 497.90625 656.402344 507.132812 654.96875 516.300781 C 654.945312 516.449219 654.921875 516.597656 654.894531 516.75 C 655.003906 516.976562 655.109375 517.199219 655.214844 517.425781 C 662.40625 521.566406 669.792969 525.5 677.457031 528.691406 C 685.574219 532.101562 694.136719 534.332031 702.855469 535.492188 C 702.914062 535.5 702.96875 535.503906 703.027344 535.511719 C 703.351562 535.558594 703.675781 535.605469 704.003906 535.644531 C 704.136719 535.265625 704.277344 534.894531 704.414062 534.515625 C 706.355469 529.199219 708.363281 523.910156 710.101562 518.535156 C 710.386719 523.628906 711.128906 528.820312 713.296875 533.355469 C 712.109375 536.792969 710.949219 540.246094 709.886719 543.730469 C 708.632812 547.925781 707.425781 552.140625 706.257812 556.355469 L 706.023438 557.199219 C 706.5 557.464844 706.96875 557.734375 707.441406 558 C 707.9375 558.28125 708.429688 558.554688 708.925781 558.835938 C 713.242188 561.269531 717.453125 563.453125 722.074219 565.445312 C 726.882812 567.554688 731.882812 569.285156 736.988281 570.636719 C 742.089844 571.984375 747.308594 572.941406 752.5625 573.5 C 752.613281 573.507812 752.660156 573.511719 752.714844 573.519531 C 752.765625 573.519531 752.820312 573.527344 752.871094 573.53125 C 753.433594 573.589844 754.007812 573.648438 754.574219 573.695312 C 754.652344 573.523438 754.730469 573.359375 754.804688 573.1875 C 754.910156 572.972656 755.015625 572.75 755.113281 572.527344 C 755.21875 572.316406 755.320312 572.089844 755.417969 571.867188 C 759.617188 562.808594 763.421875 553.582031 767.078125 544.292969 C 768.535156 543.238281 769.933594 542.050781 771.277344 540.742188 C 776.191406 535.828125 780.421875 530.296875 784.242188 524.492188 C 795.417969 507.429688 800.996094 487.566406 809.019531 468.972656 C 809.683594 467.402344 810.34375 465.820312 810.992188 464.242188 C 811.527344 464.191406 812.066406 464.117188 812.601562 464.03125 C 833.414062 460.796875 850.246094 444.929688 864.78125 430.699219 C 872.707031 422.558594 880.089844 413.902344 887.890625 405.640625 C 892.023438 401.328125 896.113281 397.101562 901.160156 393.796875 C 902.253906 393.070312 903.363281 392.359375 904.5 391.691406 C 902.300781 392.621094 900.125 393.75 898.023438 394.925781 C 893.417969 397.492188 888.710938 399.984375 884.695312 403.464844 C 864.992188 419.613281 850.429688 442.058594 827.535156 454.15625 C 823.179688 456.386719 818.113281 458.378906 813 459.328125 C 812.816406 459.367188 812.628906 459.398438 812.441406 459.425781 C 812.269531 459.457031 812.089844 459.492188 811.914062 459.519531 C 811.886719 459.527344 811.867188 459.527344 811.84375 459.53125 C 811.691406 459.550781 811.539062 459.578125 811.382812 459.597656 C 811.363281 459.605469 811.335938 459.605469 811.316406 459.609375 C 811.144531 459.628906 810.980469 459.65625 810.816406 459.675781 C 810.789062 459.683594 810.765625 459.683594 810.746094 459.683594 C 810.574219 459.710938 810.410156 459.730469 810.246094 459.742188 C 810.109375 459.761719 809.964844 459.773438 809.824219 459.789062 L 809.589844 459.808594 C 809.464844 459.820312 809.335938 459.832031 809.214844 459.835938 C 809.117188 459.84375 809.019531 459.847656 808.925781 459.855469 L 808.878906 459.855469 C 807.230469 459.96875 805.59375 459.949219 803.996094 459.765625 C 804.148438 459.613281 804.300781 459.464844 804.457031 459.316406 C 812.019531 451.648438 819.734375 444.113281 826.933594 436.101562 C 832.746094 429.226562 838.898438 422.25 842.214844 413.753906 C 844.3125 408.167969 844.742188 401.757812 842.632812 396.117188 C 841.285156 392.953125 838.792969 390.261719 835.816406 388.558594 C 821.699219 381.296875 808.5 394.753906 799.09375 404.058594 C 801.898438 399.402344 804.769531 394.785156 807.378906 390.054688 C 814.484375 377.472656 822.167969 365.023438 832.546875 354.847656 C 841.796875 345.984375 851.984375 338.082031 862.859375 331.3125 C 863.136719 331.136719 863.414062 330.964844 863.683594 330.796875 C 867.109375 328.691406 870.605469 326.691406 874.15625 324.816406 C 882.113281 320.964844 893.320312 316.941406 902.035156 319.953125 C 909.457031 322.84375 915.972656 328.273438 919.441406 335.515625 C 921.660156 340.070312 923.617188 344.800781 924.640625 349.789062 C 926 357.140625 925.953125 364.691406 925.542969 372.132812 C 923.226562 397.519531 920.046875 422.835938 919.625 448.351562 C 919.242188 459.652344 919.445312 471.007812 917.746094 482.214844 C 916.425781 491.125 914.628906 499.34375 912.148438 508.246094 C 898.3125 552.886719 883.101562 597.65625 879.597656 644.59375 C 878.601562 656.285156 878.046875 668.027344 878.40625 679.757812 C 878.453125 681.75 878.511719 683.738281 878.617188 685.726562 C 878.730469 687.097656 878.714844 688.550781 879.09375 689.875 C 879.101562 689.875 879.101562 689.875 879.105469 689.863281 C 879.105469 689.863281 879.105469 689.863281 879.097656 689.863281 C 878.660156 687.308594 878.921875 684.679688 879.03125 682.085938 C 879.742188 671.9375 881.519531 661.902344 883.023438 651.84375 C 886.113281 629 889.5625 606.46875 895.371094 584.070312 C 899.171875 568.941406 903.355469 553.890625 908.363281 539.121094 C 911.167969 531.027344 914.335938 523.058594 916.910156 514.894531 C 920.378906 503.703125 922.855469 492.210938 924.265625 480.582031 C 926.367188 461.449219 925.839844 442.144531 927.195312 422.960938 C 928.527344 403.980469 932.222656 385.203125 931.445312 366.078125 Z M 529.863281 175.773438 C 529.636719 180.601562 529.0625 185.417969 528.003906 190.125 C 527.859375 190.785156 527.707031 191.4375 527.542969 192.085938 C 527.542969 192.085938 527.542969 192.085938 527.535156 192.085938 L 527.527344 192.085938 C 527.546875 191.820312 527.558594 191.558594 527.574219 191.292969 C 527.804688 186.425781 527.878906 181.550781 527.910156 176.683594 C 527.917969 175.277344 527.910156 173.878906 527.910156 172.46875 L 527.910156 172.335938 C 527.898438 169.8125 527.917969 167.292969 527.996094 164.773438 C 528.066406 162.359375 528.160156 159.9375 528.257812 157.519531 C 528.367188 154.894531 528.488281 152.269531 528.5625 149.640625 C 528.574219 149.105469 528.59375 148.578125 528.59375 148.042969 C 528.601562 147.566406 528.625 147.074219 528.59375 146.59375 L 528.582031 146.59375 C 528.582031 146.519531 528.5625 146.425781 528.582031 146.355469 C 528.582031 146.34375 528.609375 146.34375 528.609375 146.355469 C 528.722656 146.921875 528.742188 147.523438 528.796875 148.097656 C 528.847656 148.652344 528.894531 149.222656 528.941406 149.78125 C 529.039062 151 529.144531 152.21875 529.238281 153.441406 C 529.417969 155.882812 529.574219 158.328125 529.695312 160.777344 C 529.816406 163.238281 529.925781 165.707031 529.980469 168.171875 C 530.027344 170.707031 529.984375 173.238281 529.863281 175.773438 Z M 808.992188 439.429688 C 812.84375 434.476562 816.910156 429.675781 821.035156 424.9375 C 823.179688 422.484375 825.296875 420.015625 827.296875 417.449219 C 827.640625 416.96875 827.988281 416.488281 828.324219 416.007812 C 828.628906 415.558594 828.910156 415.089844 829.1875 414.621094 C 829.636719 413.808594 830.039062 412.984375 830.40625 412.140625 C 830.777344 411.175781 831.101562 410.214844 831.375 409.21875 C 831.546875 408.453125 831.699219 407.6875 831.8125 406.910156 C 831.871094 406.394531 831.902344 405.886719 831.921875 405.367188 C 831.914062 404.917969 831.898438 404.476562 831.859375 404.027344 C 831.800781 403.605469 831.726562 403.191406 831.644531 402.78125 C 831.644531 402.761719 831.636719 402.742188 831.632812 402.722656 C 831.527344 402.328125 831.414062 401.949219 831.261719 401.570312 C 831.15625 401.339844 831.046875 401.109375 830.925781 400.886719 C 830.820312 400.699219 830.625 400.410156 830.484375 400.246094 C 830.335938 400.066406 830.179688 399.898438 830.007812 399.730469 C 829.875 399.605469 829.730469 399.488281 829.585938 399.375 C 829.578125 399.375 829.578125 399.375 829.578125 399.375 C 829.445312 399.277344 829.3125 399.191406 829.167969 399.105469 C 829.101562 399.074219 829.035156 399.039062 828.976562 399.007812 C 828.917969 398.988281 828.859375 398.96875 828.800781 398.941406 C 828.75 398.933594 828.707031 398.925781 828.65625 398.914062 C 828.617188 398.914062 828.585938 398.90625 828.546875 398.90625 C 828.527344 398.90625 828.5 398.90625 828.476562 398.914062 C 828.464844 398.914062 828.449219 398.921875 828.4375 398.925781 C 828.4375 398.925781 828.4375 398.925781 828.429688 398.925781 C 828.421875 398.929688 828.417969 398.929688 828.410156 398.933594 C 828.410156 398.933594 828.410156 398.941406 828.410156 398.945312 L 828.410156 398.953125 C 828.417969 398.953125 828.417969 398.960938 828.417969 398.960938 C 828.425781 398.960938 828.425781 398.96875 828.425781 398.96875 C 828.433594 398.96875 828.4375 398.96875 828.445312 398.976562 C 828.453125 398.976562 828.453125 398.984375 828.445312 398.984375 C 828.394531 398.972656 828.386719 398.945312 828.425781 398.910156 C 828.546875 398.796875 828.875 398.910156 829.003906 398.9375 C 829.398438 399.03125 829.769531 399.261719 830.113281 399.472656 C 831.261719 400.191406 832.074219 401.351562 832.605469 402.574219 C 832.910156 403.277344 833.191406 404.023438 833.34375 404.769531 C 833.5 405.507812 833.601562 406.226562 833.671875 406.976562 C 833.8125 408.546875 833.652344 410.140625 833.421875 411.699219 C 832.953125 414.890625 831.457031 417.894531 829.5625 420.476562 C 827.628906 423.101562 825.40625 425.484375 823.035156 427.726562 C 820.816406 429.824219 818.472656 431.808594 816.101562 433.742188 C 813.753906 435.664062 811.375 437.566406 808.996094 439.441406 L 808.988281 439.441406 L 808.988281 439.429688 Z M 671.125 297.703125 C 670.707031 297.527344 670.292969 297.367188 669.855469 297.242188 C 669.523438 297.15625 669.175781 297.085938 668.839844 297.039062 C 668.546875 297.007812 668.265625 297 667.980469 296.988281 C 667.972656 296.988281 667.972656 296.976562 667.980469 296.980469 C 668.515625 296.949219 669.042969 296.902344 669.578125 296.953125 C 670.300781 297.023438 670.996094 297.167969 671.6875 297.371094 C 673.152344 297.808594 674.539062 298.519531 675.824219 299.328125 C 677.078125 300.113281 678.199219 301.109375 679.214844 302.171875 C 680.304688 303.292969 681.1875 304.621094 681.820312 306.046875 C 682.535156 307.65625 682.941406 309.382812 683.265625 311.109375 C 683.597656 312.839844 683.785156 314.597656 683.90625 316.351562 C 683.90625 316.359375 683.90625 316.359375 683.898438 316.359375 C 683.285156 314.722656 682.652344 313.09375 682.015625 311.472656 C 681.386719 309.890625 680.765625 308.300781 680 306.777344 C 679.644531 306.132812 679.269531 305.507812 678.867188 304.890625 C 678.046875 303.738281 677.171875 302.636719 676.21875 301.582031 C 675.605469 300.9375 674.972656 300.328125 674.292969 299.753906 C 673.71875 299.296875 673.132812 298.871094 672.519531 298.46875 C 672.511719 298.46875 672.511719 298.460938 672.507812 298.460938 C 672.507812 298.460938 672.507812 298.460938 672.5 298.460938 C 672.058594 298.183594 671.601562 297.933594 671.125 297.703125 Z M 711.648438 434.628906 C 711.359375 434.316406 711.0625 434.019531 710.761719 433.71875 C 710.351562 433.34375 709.929688 432.992188 709.492188 432.636719 C 709.214844 432.4375 708.945312 432.234375 708.652344 432.050781 C 708.308594 431.832031 707.953125 431.628906 707.605469 431.433594 C 707.203125 431.242188 706.800781 431.058594 706.382812 430.894531 C 705.96875 430.75 705.554688 430.605469 705.128906 430.507812 C 704.355469 430.328125 703.574219 430.234375 702.785156 430.152344 C 702.59375 430.132812 702.402344 430.113281 702.210938 430.082031 C 702.160156 430.070312 702.097656 430.0625 702.0625 430.023438 C 702.050781 430.011719 702.0625 429.996094 702.070312 430.003906 L 702.070312 429.996094 L 702.078125 429.996094 C 702.078125 430.003906 702.070312 430.003906 702.070312 430.003906 C 702.070312 430.003906 702.070312 430.003906 702.070312 430.011719 L 702.070312 430.019531 C 702.078125 430.019531 702.078125 430.027344 702.082031 430.027344 C 702.09375 430.035156 702.101562 430.039062 702.121094 430.046875 C 702.148438 430.046875 702.183594 430.054688 702.210938 430.058594 C 702.605469 430.085938 703.007812 430.085938 703.410156 430.070312 L 704.046875 430.070312 C 704.609375 430.070312 705.527344 430.148438 706.082031 430.257812 C 706.371094 430.316406 706.65625 430.378906 706.9375 430.445312 C 707.894531 430.6875 708.832031 431.019531 709.71875 431.464844 C 712.144531 432.683594 714.210938 434.496094 715.832031 436.667969 C 716.25 437.222656 716.636719 437.789062 717.007812 438.375 C 717.386719 438.976562 717.71875 439.59375 718.042969 440.21875 C 718.714844 441.519531 719.15625 442.933594 719.496094 444.355469 C 720.160156 447.152344 719.925781 450.078125 719.554688 452.898438 C 719.410156 454.007812 719.203125 455.09375 718.988281 456.183594 C 718.988281 456.195312 718.980469 456.210938 718.980469 456.214844 C 718.980469 456.222656 718.972656 456.238281 718.972656 456.25 C 718.425781 458.925781 717.691406 461.566406 716.898438 464.171875 C 716.121094 466.738281 715.257812 469.285156 714.332031 471.796875 C 713.9375 472.867188 713.519531 473.925781 713.089844 474.976562 C 713.089844 474.984375 713.089844 474.984375 713.082031 474.984375 L 713.082031 474.976562 C 714.167969 469.527344 715.035156 464.019531 715.816406 458.519531 C 716.089844 456.613281 716.316406 454.703125 716.496094 452.78125 C 716.5625 451.929688 716.628906 451.066406 716.660156 450.203125 C 716.691406 449.339844 716.699219 448.472656 716.699219 447.605469 C 716.679688 447.195312 716.667969 446.785156 716.628906 446.378906 C 716.597656 445.933594 716.542969 445.496094 716.484375 445.0625 C 716.355469 444.28125 716.191406 443.519531 716 442.753906 C 715.855469 442.273438 715.699219 441.800781 715.539062 441.316406 C 715.371094 440.820312 715.164062 440.347656 714.957031 439.863281 C 714.597656 439.097656 714.207031 438.347656 713.796875 437.605469 C 713.597656 437.269531 713.402344 436.941406 713.175781 436.617188 C 712.929688 436.246094 712.660156 435.882812 712.394531 435.527344 C 712.15625 435.214844 711.90625 434.917969 711.648438 434.628906 Z M 727.65625 492.289062 C 724.585938 499.785156 721.941406 507.449219 719.574219 515.191406 C 718.039062 519.933594 716.359375 524.621094 714.699219 529.324219 C 713.484375 524.839844 712.996094 520.175781 712.660156 515.542969 C 712.546875 513.960938 712.480469 512.382812 712.472656 510.808594 C 713.542969 507.136719 714.539062 503.449219 715.542969 499.753906 C 715.546875 499.75 715.546875 499.746094 715.550781 499.742188 C 720.863281 495.996094 725.632812 491.195312 729.792969 485.882812 L 729.792969 485.875 C 729.824219 485.835938 729.859375 485.796875 729.890625 485.75 C 730 485.617188 730.109375 485.472656 730.222656 485.328125 C 730.46875 485.011719 730.710938 484.6875 730.949219 484.371094 C 729.792969 486.984375 728.746094 489.65625 727.65625 492.289062 Z M 738.832031 458.578125 C 738.53125 458.988281 738.300781 459.445312 738.207031 459.941406 C 738.105469 460.472656 737.878906 460.917969 737.648438 461.414062 C 737.46875 461.8125 737.285156 462.203125 737.09375 462.601562 C 737.003906 462.796875 736.914062 462.992188 736.816406 463.1875 C 736.71875 463.390625 736.625 463.589844 736.53125 463.789062 C 736.414062 464.019531 736.300781 464.257812 736.183594 464.488281 C 736.070312 464.730469 735.953125 464.972656 735.828125 465.207031 C 735.640625 465.589844 735.453125 465.964844 735.253906 466.339844 C 735.152344 466.539062 735.054688 466.734375 734.949219 466.941406 C 734.683594 467.441406 734.414062 467.949219 734.148438 468.453125 C 734.0625 468.601562 733.984375 468.75 733.898438 468.910156 C 733.6875 469.304688 733.460938 469.703125 733.242188 470.101562 C 730.320312 475.316406 726.992188 480.300781 723.148438 484.949219 C 721.597656 486.796875 719.945312 488.636719 718.1875 490.390625 C 718.183594 490.386719 718.1875 490.390625 718.183594 490.390625 C 720.882812 481.109375 724.53125 472.058594 726.140625 462.492188 C 727.089844 456.027344 727.558594 449.425781 726.785156 442.914062 C 726.277344 438.792969 725.464844 434.78125 723.785156 430.941406 C 722.4375 427.960938 721.03125 424.9375 718.855469 422.472656 C 716.671875 420.039062 713.941406 418.035156 710.953125 416.714844 C 707.835938 415.488281 704.460938 415.039062 701.121094 415.039062 L 701.042969 415.039062 C 690.921875 415.046875 682.59375 422.203125 677.195312 430.207031 C 672.109375 437.800781 669.207031 447.027344 666.511719 455.753906 C 664.851562 461.472656 663.445312 467.15625 662.183594 472.894531 C 661.523438 468.441406 661.601562 463.914062 661.746094 459.246094 C 662.5 449.417969 665 439.894531 666.886719 430.238281 C 669.992188 415.589844 672.699219 401.117188 675.800781 386.488281 C 675.945312 385.796875 676.097656 385.105469 676.246094 384.417969 C 676.5625 382.9375 676.882812 381.457031 677.210938 379.972656 C 678.414062 374.734375 679.621094 369.496094 680.847656 364.265625 C 680.925781 363.949219 681 363.644531 681.066406 363.332031 C 681.105469 363.183594 681.136719 363.027344 681.179688 362.871094 C 681.210938 362.71875 681.25 362.558594 681.285156 362.410156 C 682.507812 357.238281 683.746094 352.082031 685.015625 346.929688 C 685.445312 345.214844 685.867188 343.5 686.308594 341.785156 C 686.449219 341.210938 686.59375 340.636719 686.738281 340.070312 C 686.878906 339.496094 687.03125 338.921875 687.175781 338.351562 C 687.460938 337.238281 687.75 336.128906 688.035156 335.015625 C 688.191406 334.414062 688.347656 333.808594 688.503906 333.207031 C 688.65625 332.632812 688.800781 332.058594 688.953125 331.488281 C 689.085938 330.988281 689.21875 330.484375 689.347656 329.984375 C 689.394531 329.820312 689.441406 329.652344 689.484375 329.488281 C 689.609375 329.011719 689.730469 328.539062 689.859375 328.070312 C 690.378906 326.105469 690.914062 324.148438 691.449219 322.1875 C 691.636719 321.519531 691.820312 320.847656 692.007812 320.175781 C 692.015625 320.144531 692.019531 320.117188 692.027344 320.082031 C 692.8125 317.269531 693.605469 314.457031 694.429688 311.644531 C 699.789062 294.753906 703.851562 277.28125 711.734375 261.324219 C 713.585938 257.722656 715.699219 254.074219 718.128906 250.644531 C 718.292969 250.410156 718.457031 250.183594 718.621094 249.949219 C 718.792969 249.71875 718.960938 249.484375 719.132812 249.257812 C 719.304688 249.03125 719.464844 248.804688 719.644531 248.578125 C 719.671875 248.546875 719.695312 248.507812 719.730469 248.464844 C 719.863281 248.289062 720.003906 248.113281 720.140625 247.9375 C 720.386719 247.621094 720.648438 247.296875 720.90625 246.988281 C 721.019531 246.84375 721.136719 246.699219 721.253906 246.566406 C 721.335938 246.46875 721.414062 246.371094 721.5 246.269531 C 721.566406 246.191406 721.632812 246.117188 721.703125 246.039062 C 721.796875 245.925781 721.894531 245.808594 721.996094 245.699219 C 722.152344 245.519531 722.3125 245.335938 722.476562 245.160156 C 727.722656 239.292969 734.160156 234.714844 742.082031 233.160156 C 748.402344 231.847656 754.84375 233.28125 761.183594 234.375 C 769.570312 236.09375 778.035156 239.757812 783.84375 246.214844 C 785.921875 248.613281 787.3125 251.476562 788.359375 254.445312 C 791.914062 264.652344 790.621094 275.710938 788.65625 286.109375 C 788.042969 288.976562 787.335938 291.816406 786.550781 294.628906 C 786.457031 294.941406 786.378906 295.25 786.285156 295.566406 C 786.191406 295.878906 786.109375 296.191406 786.015625 296.503906 C 785.90625 296.867188 785.804688 297.226562 785.691406 297.59375 C 785.632812 297.804688 785.566406 298.023438 785.5 298.238281 C 785.390625 298.59375 785.289062 298.945312 785.175781 299.300781 C 785.078125 299.613281 784.980469 299.917969 784.882812 300.230469 C 784.746094 300.667969 784.605469 301.101562 784.472656 301.53125 C 784.402344 301.761719 784.328125 301.988281 784.25 302.214844 C 783.867188 303.40625 783.46875 304.589844 783.0625 305.777344 C 782.890625 306.296875 782.707031 306.820312 782.527344 307.339844 C 782.429688 307.617188 782.332031 307.898438 782.230469 308.183594 C 782.230469 308.183594 782.21875 308.214844 782.199219 308.289062 C 781.40625 310.855469 766.363281 359.570312 759.210938 390.902344 C 759.203125 390.910156 759.203125 390.921875 759.203125 390.929688 C 757.933594 398.445312 756.859375 402.3125 756.761719 402.664062 C 756.753906 402.671875 756.753906 402.683594 756.753906 402.691406 C 755.167969 408.496094 753.441406 414.265625 751.71875 420.035156 C 750.609375 423.730469 749.515625 427.429688 748.4375 431.144531 C 746.515625 437.886719 744.398438 444.632812 741.90625 451.222656 C 741.851562 451.378906 741.785156 451.542969 741.726562 451.699219 C 741.675781 451.84375 741.613281 451.996094 741.5625 452.136719 C 741.535156 452.1875 741.515625 452.25 741.496094 452.308594 C 741.398438 452.558594 741.304688 452.804688 741.203125 453.050781 C 741.15625 453.171875 741.105469 453.304688 741.050781 453.425781 C 740.945312 453.699219 740.84375 453.964844 740.734375 454.230469 C 740.734375 454.238281 740.726562 454.242188 740.726562 454.257812 C 740.609375 454.539062 740.496094 454.816406 740.382812 455.101562 C 740.074219 455.863281 739.757812 456.617188 739.4375 457.371094 C 739.261719 457.773438 739.125 458.175781 738.832031 458.578125 Z M 767.683594 513.648438 C 766.339844 516.675781 764.894531 519.664062 763.476562 522.652344 C 762.761719 524.15625 762.039062 525.652344 761.3125 527.15625 L 761.304688 527.15625 C 761.304688 527.15625 761.296875 527.15625 761.296875 527.148438 C 762.0625 523.945312 762.894531 520.757812 763.730469 517.578125 C 764.582031 514.332031 765.507812 511.109375 766.359375 507.863281 C 766.636719 506.816406 766.878906 505.757812 767.128906 504.703125 C 767.808594 501.53125 768.417969 498.339844 768.84375 495.113281 C 768.960938 493.871094 769.035156 492.632812 769.054688 491.378906 C 769.042969 490.757812 769.015625 490.136719 768.984375 489.519531 C 768.953125 488.878906 768.867188 488.242188 768.789062 487.605469 C 768.722656 487.183594 768.667969 486.769531 768.578125 486.359375 C 768.480469 485.882812 768.367188 485.421875 768.242188 484.953125 C 768.074219 484.417969 767.898438 483.898438 767.710938 483.375 C 767.5 482.914062 767.289062 482.46875 767.058594 482.019531 C 766.816406 481.617188 766.570312 481.234375 766.300781 480.84375 C 766.046875 480.527344 765.789062 480.230469 765.515625 479.941406 C 765.269531 479.710938 765.019531 479.496094 764.761719 479.289062 C 764.34375 478.988281 763.917969 478.703125 763.46875 478.445312 C 763.203125 478.304688 762.9375 478.160156 762.65625 478.027344 C 762.53125 477.96875 762.402344 477.910156 762.273438 477.847656 C 762.246094 477.835938 762.246094 477.835938 762.226562 477.816406 C 762.234375 477.808594 762.234375 477.804688 762.238281 477.804688 C 762.238281 477.804688 762.246094 477.804688 762.246094 477.8125 C 762.246094 477.8125 762.238281 477.8125 762.238281 477.820312 C 762.238281 477.820312 762.246094 477.820312 762.246094 477.828125 C 762.257812 477.835938 762.273438 477.839844 762.277344 477.839844 C 763.238281 478.179688 764.199219 478.488281 765.109375 478.976562 C 765.414062 479.140625 765.703125 479.339844 765.976562 479.546875 C 766.527344 479.964844 767.046875 480.410156 767.507812 480.933594 C 768.015625 481.503906 768.464844 482.101562 768.898438 482.730469 C 769.316406 483.335938 769.652344 484.023438 769.960938 484.683594 C 770.296875 485.40625 770.582031 486.144531 770.839844 486.898438 C 771.066406 487.578125 771.25 488.269531 771.429688 488.960938 C 771.578125 489.546875 771.785156 490.515625 771.867188 491.117188 C 771.875 491.171875 771.882812 491.214844 771.890625 491.257812 C 771.890625 491.269531 771.890625 491.285156 771.898438 491.296875 C 772.023438 492.261719 772.125 493.21875 772.183594 494.1875 C 772.253906 495.300781 772.183594 496.421875 772.113281 497.535156 C 772.003906 499.257812 771.789062 500.96875 771.441406 502.65625 C 770.996094 504.8125 770.414062 506.921875 769.628906 508.976562 C 769.035156 510.554688 768.371094 512.105469 767.683594 513.648438 Z M 848.640625 334.191406 C 840.25 340.75 831.996094 347.609375 824.953125 355.628906 C 815.285156 366.410156 808.199219 379.0625 801.125 391.609375 C 796.105469 400.460938 790.304688 408.945312 786.394531 418.371094 C 785.425781 419.578125 784.46875 420.804688 783.515625 422.039062 C 778.59375 428.433594 773.804688 434.933594 769.597656 441.828125 C 767.613281 444.949219 765.820312 448.191406 764.128906 451.484375 C 763.945312 451.835938 763.773438 452.183594 763.589844 452.546875 C 767.273438 455.871094 771.03125 459.148438 775.203125 461.851562 C 779.578125 464.550781 784.320312 466.761719 789.320312 468.011719 C 790.59375 468.308594 791.859375 468.585938 793.132812 468.832031 C 793.53125 468.910156 793.9375 468.988281 794.339844 469.0625 C 796.351562 467.226562 798.324219 465.34375 800.261719 463.4375 C 802.222656 463.960938 804.25 464.277344 806.292969 464.386719 C 804.445312 468.167969 802.699219 472.019531 801.046875 475.964844 C 797.207031 485.21875 794.21875 494.820312 790.183594 504.007812 C 785.375 515.511719 778.992188 526.535156 770.429688 535.648438 C 771.28125 533.433594 772.125 531.21875 772.984375 529.003906 C 776.308594 520.167969 779.550781 511.238281 781.496094 501.972656 C 782.550781 497.019531 783.191406 491.941406 782.875 486.875 C 782.234375 474.679688 773.328125 464.9375 761.511719 462.382812 C 760.203125 462.101562 758.878906 461.960938 757.542969 461.960938 C 753.847656 461.960938 750.140625 462.988281 746.878906 464.71875 C 744.046875 466.230469 741.613281 468.347656 739.46875 470.722656 C 739.824219 470.035156 740.175781 469.34375 740.511719 468.652344 C 749.304688 450.691406 753.589844 431.007812 758.972656 411.863281 C 762.425781 399.019531 766.007812 386.476562 768.542969 373.449219 C 769.46875 368.691406 770.65625 363.984375 772.054688 359.34375 C 775.714844 347.226562 779.277344 335.074219 783.640625 323.1875 C 787.03125 314.488281 790.292969 305.636719 792.59375 296.578125 C 801.21875 290.464844 812.589844 288.914062 822.832031 290.992188 C 827.019531 291.882812 831.027344 293.433594 834.847656 295.347656 C 841.605469 298.652344 847.253906 302.910156 851.8125 308.949219 C 855.710938 314.054688 858.398438 319.929688 860.753906 325.894531 C 856.605469 328.488281 852.566406 331.289062 848.640625 334.191406 Z M 848.640625 334.191406 " fill-opacity="1" fill-rule="nonzero"/></g><path fill="#000000" d="M 781.480469 497.804688 C 781.480469 497.804688 781.480469 497.808594 781.480469 497.808594 C 781.484375 497.847656 781.492188 497.886719 781.496094 497.929688 C 781.496094 497.945312 781.5 497.957031 781.5 497.972656 C 781.5 497.976562 781.5 497.984375 781.5 497.988281 C 781.496094 497.925781 781.488281 497.863281 781.480469 497.804688 Z M 781.480469 497.804688 " fill-opacity="1" fill-rule="nonzero"/><path fill="#000000" d="M 841.011719 415.78125 C 841.003906 415.808594 841 415.835938 840.992188 415.863281 C 841 415.835938 841 415.808594 841.011719 415.78125 Z M 841.011719 415.78125 " fill-opacity="1" fill-rule="nonzero"/></svg>