<svg xmlns="http://www.w3.org/2000/svg" xmlns:xlink="http://www.w3.org/1999/xlink" width="250" zoomAndPan="magnify" viewBox="0 0 187.5 187.499992" height="250" preserveAspectRatio="xMidYMid meet" version="1.0"><defs><g/></defs><g fill="#000000" fill-opacity="1"><g transform="translate(9.938257, 135.751986)"><g><path d="M 26.296875 -1.875 L 40.0625 -1.25 L 40.0625 0 L 5.328125 0 L 5.328125 -1.25 L 14.390625 -1.875 L 14.390625 -87.9375 L 5.328125 -88.5625 L 5.328125 -89.828125 L 72.453125 -89.828125 L 76.828125 -64 L 75.421875 -63.6875 L 69.484375 -75.109375 C 67.492188 -78.765625 65.300781 -81.503906 62.90625 -83.328125 C 60.507812 -85.148438 57.585938 -86.375 54.140625 -87 C 50.703125 -87.625 46.320312 -87.9375 41 -87.9375 L 26.296875 -87.9375 L 26.296875 -48.671875 L 39.90625 -48.671875 C 43.65625 -48.671875 46.597656 -48.984375 48.734375 -49.609375 C 50.878906 -50.234375 52.628906 -51.71875 53.984375 -54.0625 C 55.335938 -56.414062 56.59375 -60.09375 57.75 -65.09375 L 59.15625 -65.09375 L 59.15625 -30.359375 L 57.75 -30.359375 C 56.59375 -35.472656 55.335938 -39.175781 53.984375 -41.46875 C 52.628906 -43.757812 50.878906 -45.21875 48.734375 -45.84375 C 46.597656 -46.46875 43.65625 -46.78125 39.90625 -46.78125 L 26.296875 -46.78125 Z M 26.296875 -1.875 "/></g></g></g><g fill="#000000" fill-opacity="1"><g transform="translate(86.926596, 135.751986)"><g><path d="M 83.875 -1.875 L 91.859375 -1.25 L 91.859375 0 L 69.484375 0 L 34.109375 -45.375 L 26.296875 -45.375 L 26.296875 -1.875 L 37.875 -1.25 L 37.875 0 L 5.328125 0 L 5.328125 -1.25 L 14.390625 -1.875 L 14.390625 -87.9375 L 5.328125 -88.5625 L 5.328125 -89.828125 L 33.953125 -89.828125 C 46.054688 -89.828125 55.601562 -88.050781 62.59375 -84.5 C 69.582031 -80.957031 73.078125 -75.320312 73.078125 -67.59375 C 73.078125 -56.332031 64.578125 -49.289062 47.578125 -46.46875 Z M 26.296875 -87.9375 L 26.296875 -47.265625 L 33.953125 -47.265625 C 42.929688 -47.265625 49.425781 -48.90625 53.4375 -52.1875 C 57.457031 -55.46875 59.46875 -60.601562 59.46875 -67.59375 C 59.46875 -74.582031 57.457031 -79.71875 53.4375 -83 C 49.425781 -86.289062 42.929688 -87.9375 33.953125 -87.9375 Z M 26.296875 -87.9375 "/></g></g></g></svg>